HIERARCHY
ROOT Hips
{
	OFFSET 0.00000 0.00000 0.00000
	CHANNELS 6 Xposition Yposition Zposition Zrotation Yrotation Xrotation 
	JOINT LHipJoint
	{
		OFFSET 0 0 0
		CHANNELS 3 Zrotation Yrotation Xrotation
		JOINT LeftHip
		{
			OFFSET 1.84395 -1.68683 0.74144
			CHANNELS 3 Zrotation Yrotation Xrotation
			JOINT LeftKnee
			{
				OFFSET 2.27037 -6.23779 0.00000
				CHANNELS 3 Zrotation Yrotation Xrotation
				JOINT LeftAnkle
				{
					OFFSET 2.56918 -7.05877 0.00000
					CHANNELS 3 Zrotation Yrotation Xrotation
					JOINT LeftToe
					{
						OFFSET 0.22276 -0.61202 1.71784
						CHANNELS 3 Zrotation Yrotation Xrotation
						End Site
						{
							OFFSET 0.00000 -0.00000 0.91613
						}
					}
				}
			}
		}
	}
	JOINT RHipJoint
	{
		OFFSET 0 0 0
		CHANNELS 3 Zrotation Yrotation Xrotation
		JOINT RightHip
		{
			OFFSET -1.76833 -1.68684 0.74144
			CHANNELS 3 Zrotation Yrotation Xrotation
			JOINT RightKnee
			{
				OFFSET -2.49360 -6.85110 0.00000
				CHANNELS 3 Zrotation Yrotation Xrotation
				JOINT RightAnkle
				{
					OFFSET -2.55538 -7.02085 0.00000
					CHANNELS 3 Zrotation Yrotation Xrotation
					JOINT RightToe
					{
						OFFSET -0.21516 -0.59115 1.68050
						CHANNELS 3 Zrotation Yrotation Xrotation
						End Site
						{
							OFFSET -0.00000 -0.00000 0.89604
						}
					}
				}
			}
		}
	}
	JOINT lowerback
	{
		OFFSET 0 0 0
		CHANNELS 3 Zrotation Yrotation Xrotation
		JOINT Chest
		{
			OFFSET 0.06382 1.72312 -0.19613
			CHANNELS 3 Zrotation Yrotation Xrotation
			JOINT Chest2
			{
				OFFSET -0.00055 1.73507 0.23859
				CHANNELS 3 Zrotation Yrotation Xrotation
				JOINT lowerneck
				{
					OFFSET 0 0 0
					CHANNELS 3 Zrotation Yrotation Xrotation
					JOINT Neck
					{
						OFFSET 0.03638 1.65562 0.09633
						CHANNELS 3 Zrotation Yrotation Xrotation
						JOINT Head
						{
							OFFSET 0.06388 1.62807 -0.32386
							CHANNELS 3 Zrotation Yrotation Xrotation
							End Site
							{
								OFFSET 0.00995 1.67644 -0.12021
							}
						}
					}
				}
				JOINT LeftCollar
				{
					OFFSET 0 0 0
					CHANNELS 3 Zrotation Yrotation Xrotation
					JOINT LeftShoulder
					{
						OFFSET 3.09648 1.42991 0.28122
CHANNELS 3 Zrotation Xrotation Yrotation
						JOINT LeftElbow
						{
OFFSET 0 -5.118780 -0.000000
CHANNELS 3 Zrotation Xrotation Yrotation
							JOINT LeftWrist
							{
OFFSET 0 -3.599710 0.000000
CHANNELS 3 Zrotation Xrotation Yrotation
								JOINT lhand
								{
									OFFSET 0 0 0
CHANNELS 3 Zrotation Xrotation Yrotation
									JOINT LFingers
									{
OFFSET 0 -0.628770 0.000000
CHANNELS 3 Zrotation Xrotation Yrotation
										End Site
										{
OFFSET 0 -0.506930 0.000000
										}
									}
								}
								JOINT LThumb
								{
OFFSET 0 0.000000 0.000000
CHANNELS 3 Zrotation Xrotation Yrotation
									End Site
									{
OFFSET 0 -0.514670 0.514670
									}
								}
							}
						}
					}
				}
				JOINT RightCollar
				{
					OFFSET 0 0 0
					CHANNELS 3 Zrotation Yrotation Xrotation
					JOINT RightShoulder
					{
						OFFSET -3.33565 1.14597 0.05047
CHANNELS 3 Zrotation Xrotation Yrotation
						JOINT RightElbow
						{
OFFSET 0 -5.490200 0.000000
CHANNELS 3 Zrotation Xrotation Yrotation
							JOINT RightWrist
							{
OFFSET 0 -3.206590 -0.000000
CHANNELS 3 Zrotation Xrotation Yrotation
								JOINT rhand
								{
									OFFSET 0 0 0
CHANNELS 3 Zrotation Xrotation Yrotation
									JOINT RFingers
									{
OFFSET 0 -0.691880 0.000000
CHANNELS 3 Zrotation Xrotation Yrotation
										End Site
										{
OFFSET 0 -0.557810 0.000000
										}
									}
								}
								JOINT RThumb
								{
OFFSET 0 0.000000 0.000000
CHANNELS 3 Zrotation Xrotation Yrotation
									End Site
									{
OFFSET 0 -0.566330 0.566330
									}
								}
							}
						}
					}
				}
			}
		}
	}
}
MOTION
Frames: 12
Frame Time: 0.008333333333333333
0.215500 17.537500 8.580200 -8.224300 -0.315900 12.466100 0.000000 0.000000 0.000000 -22.830700 -49.089000 27.740500 0.054800 -1.511200 -4.156700 -4.431500 46.665900 -53.867100 0.988300 6.327400 17.737300 0.000000 0.000000 0.000000 25.331200 27.487900 4.909800 -0.000400 -0.127200 0.349500 1.380000 -24.121000 -23.306400 -0.118400 -2.218100 6.108700 3.105600 0.315500 -1.355400 3.336500 0.916500 -12.032600 1.809000 0.350600 -12.203400 -14.602600 -13.343600 -0.780000 11.634300 -20.615400 24.020100 4.137000 -10.052100 10.589100 -0.000000 0.000000 0.000000 -4.773000 12.742700 -15.053500 10.724900 -17.865400 1.690600 15.879400 24.238900 11.737500 0.000000 0.000000 0.000000 -7.125000 0.000000 0.000000 -7.887700 17.858500 -5.137800 -0.000000 0.000000 0.000000 -1.294800 12.769000 4.634900 -12.806000 -21.002200 -2.383300 20.329100 30.860800 24.433000 0.000000 0.000000 0.000000 7.125000 0.000000 -0.000000 46.896200 48.587600 -5.233400
0.212371 17.537500 8.577428 -8.216807 -0.242585 12.452958 0.000000 0.000000 0.000000 -22.608968 -48.945311 27.459613 0.054171 -1.501555 -4.129937 -4.371052 46.438667 -53.592597 0.993529 6.343660 17.784807 0.000000 0.000000 0.000000 25.364032 27.533508 4.971764 -0.000300 -0.111458 0.306316 1.411686 -24.273956 -23.320789 -0.112115 -2.158747 5.944496 3.068704 0.324718 -1.358232 3.326125 0.926104 -12.027442 1.817115 0.358688 -12.195511 -14.550302 -13.441591 -0.963677 11.696031 -20.762608 24.042294 4.111740 -10.099431 10.656284 0.000000 0.000000 0.000000 -4.785448 12.687691 -15.130100 10.715115 -17.850229 1.687557 15.847811 24.303091 11.745487 0.000000 0.000000 0.000000 -7.125000 0.000000 0.000000 -7.909694 17.852543 -5.153446 0.000000 0.000000 0.000000 -1.178612 12.804146 4.211475 -12.815118 -21.015635 -2.386559 20.306059 31.339373 24.341588 0.000000 0.000000 0.000000 7.125000 0.000000 0.000000 46.809725 48.522124 -5.126675
0.197727 17.553730 8.598274 -7.495126 -0.192989 13.124083 0.000000 0.000000 0.000000 -23.017908 -49.818010 26.905140 0.048871 -1.426584 -3.923280 -4.216479 46.539915 -54.177424 1.035592 6.472460 18.161655 0.000000 0.000000 0.000000 24.277583 28.165183 4.527068 -0.000057 -0.049177 0.135204 1.463838 -24.697710 -23.758254 -0.133586 -2.355915 6.490231 2.011827 0.270505 -2.508173 3.204200 0.738421 -12.145848 2.287029 0.369397 -11.631178 -14.467899 -13.464212 -0.794547 11.883213 -20.829252 23.750699 4.168895 -10.121090 10.539169 0.000000 0.000000 0.000000 -4.824970 12.586969 -15.121244 10.665815 -17.774215 1.672472 15.343647 24.588509 12.419689 0.000000 0.000000 0.000000 -7.125000 0.000000 0.000000 -8.257294 17.198188 -5.504524 0.000000 0.000000 0.000000 -1.408130 12.567343 4.583904 -12.390374 -20.387455 -2.236505 18.937752 31.409530 24.444904 0.000000 0.000000 0.000000 7.125000 0.000000 0.000000 45.825605 48.817624 -5.365697
0.194543 17.556343 8.596756 -7.525746 -0.156885 13.204644 0.000000 0.000000 0.000000 -22.766489 -49.799809 26.659201 0.049486 -1.435727 -3.948625 -4.327018 46.587741 -53.986427 0.990298 6.333722 17.755955 0.000000 0.000000 0.000000 24.276938 28.236082 4.444671 -0.000100 -0.047703 0.131051 1.475805 -24.755320 -23.766256 -0.129745 -2.321606 6.395298 1.862231 0.231910 -2.665770 3.296789 0.682908 -12.183531 2.475476 0.363801 -11.581836 -14.449661 -13.486314 -0.692184 11.890267 -20.866866 23.673419 4.170883 -10.142936 10.495935 0.000000 0.000000 0.000000 -4.809490 12.736950 -15.732684 10.727733 -17.869615 1.691377 14.846905 24.068300 12.267094 0.000000 0.000000 0.000000 -7.125000 0.000000 0.000000 -8.602732 17.389195 -5.703552 0.000000 0.000000 0.000000 -1.556701 12.515584 4.546942 -12.242551 -20.167476 -2.185174 18.515788 31.729370 24.689889 0.000000 0.000000 0.000000 7.125000 0.000000 0.000000 45.677567 49.071405 -5.682213
0.194029 17.553884 8.591126 -7.833587 -0.148064 13.095353 0.000000 0.000000 0.000000 -22.442722 -49.673385 26.742227 0.051272 -1.461213 -4.018892 -4.315185 46.568922 -53.981277 1.006960 6.385111 17.906154 0.000000 0.000000 0.000000 24.691442 28.205386 4.517801 -0.000100 -0.070993 0.195077 1.471121 -24.709088 -23.707178 -0.132813 -2.349173 6.471679 2.099997 0.251642 -2.555933 3.421876 0.733702 -12.142273 2.474485 0.372732 -11.603427 -14.236824 -13.606265 -0.767075 11.711726 -21.008991 23.713616 4.049861 -10.200384 10.499326 0.000000 0.000000 0.000000 -4.830571 12.734199 -15.977283 10.769459 -17.934061 1.704286 15.062473 23.754820 12.292722 0.000000 0.000000 0.000000 -7.125000 0.000000 0.000000 -8.452909 17.348038 -5.609740 0.000000 0.000000 0.000000 -1.561718 12.432090 4.310640 -12.197221 -20.099746 -2.169607 18.144874 31.971292 24.657339 0.000000 0.000000 0.000000 7.125000 0.000000 0.000000 45.360555 49.105847 -5.669772
0.196515 17.554887 8.584841 -7.788201 -0.204237 13.051342 0.000000 0.000000 0.000000 -22.514677 -49.625783 26.733481 0.050485 -1.449625 -3.986933 -4.264454 46.495388 -53.972897 1.025975 6.443240 18.076019 0.000000 0.000000 0.000000 24.619027 28.172894 4.502460 -0.000143 -0.079380 0.218141 1.455325 -24.625684 -23.679079 -0.128039 -2.306448 6.353367 2.047063 0.249521 -2.500415 3.438313 0.731089 -12.111285 2.521462 0.377678 -11.601508 -13.811137 -13.694509 -0.843216 11.430636 -21.060870 23.548803 3.883766 -10.212539 10.374104 0.000000 0.000000 0.000000 -4.844511 12.666572 -15.705620 10.777447 -17.946342 1.706734 15.183618 23.907101 12.249026 0.000000 0.000000 0.000000 -7.125000 0.000000 0.000000 -8.369180 17.383996 -5.546249 0.000000 0.000000 0.000000 -1.567147 12.369232 4.440012 -12.242475 -20.167313 -2.185182 18.111976 31.784460 25.052541 0.000000 0.000000 0.000000 7.125000 0.000000 0.000000 45.631205 49.412150 -6.129822
0.200218 17.557016 8.580840 -7.687040 -0.244951 13.055242 0.000000 0.000000 0.000000 -22.574783 -49.582039 26.621736 0.050169 -1.444855 -3.973801 -4.557842 46.718840 -53.643703 0.954487 6.221210 17.427622 0.000000 0.000000 0.000000 24.455333 28.129001 4.474349 -0.000100 -0.058514 0.160842 1.471843 -24.644739 -23.546927 -0.122873 -2.259802 6.224203 1.999267 0.224421 -2.546715 3.398731 0.688329 -12.097406 2.507672 0.358497 -11.554656 -14.316446 -13.534540 -0.713596 11.838241 -20.923238 23.615055 4.123641 -10.161944 10.464539 0.000000 0.000000 0.000000 -4.798830 12.663234 -15.751271 10.795596 -17.974316 1.712332 17.063837 22.580791 13.431853 0.000000 0.000000 0.000000 -7.125000 0.000000 0.000000 -7.075207 16.023237 -4.884285 0.000000 0.000000 0.000000 -1.565330 12.289200 4.680055 -12.236730 -20.158745 -2.183186 18.203671 31.545794 25.233787 0.000000 0.000000 0.000000 7.125000 0.000000 0.000000 45.841654 49.535032 -6.336563
0.203001 17.559008 8.575298 -7.408308 -0.208976 13.168634 0.000000 0.000000 0.000000 -22.608626 -49.540133 26.152442 0.046992 -1.398581 -3.846373 -4.545759 46.523437 -53.299553 0.963277 6.249126 17.509084 0.000000 0.000000 0.000000 24.030113 28.100042 4.328133 0.000000 -0.035895 0.098611 1.466496 -24.642607 -23.599422 -0.131791 -2.340317 6.447169 1.751940 0.172950 -2.639761 3.318458 0.599636 -12.154984 2.566137 0.335042 -11.562430 -14.321214 -13.560857 -0.645110 11.747135 -20.936691 23.559949 4.095814 -10.180999 10.422950 0.000000 0.000000 0.000000 -4.792261 12.624766 -15.284175 10.758367 -17.916949 1.700890 17.791782 22.684993 14.041479 0.000000 0.000000 0.000000 -7.125000 0.000000 0.000000 -6.586616 15.329016 -4.642238 0.000000 0.000000 0.000000 -1.502738 12.340619 4.693667 -12.314455 -20.274581 -2.210019 18.374146 31.440502 25.314918 0.000000 0.000000 0.000000 7.125000 0.000000 0.000000 46.038906 49.568766 -6.422432
0.205545 17.562539 8.571014 -6.866232 -0.156396 13.316050 0.000000 0.000000 0.000000 -23.465013 -50.015745 26.303884 0.042577 -1.330938 -3.659933 -4.554753 46.677544 -53.571829 0.984673 6.316222 17.704629 0.000000 0.000000 0.000000 23.202934 27.740097 4.022306 0.000000 0.017760 -0.048771 1.461420 -24.527341 -23.379547 -0.123014 -2.260993 6.227426 1.214130 0.103058 -2.821563 3.169701 0.465503 -12.187513 2.713932 0.313918 -11.484849 -14.590228 -13.511110 -0.504247 12.153475 -20.956794 23.461568 4.281634 -10.187926 10.445972 0.000000 0.000000 0.000000 -4.758395 12.560928 -15.127236 10.739339 -17.887544 1.695018 17.835949 22.797251 14.060822 0.000000 0.000000 0.000000 -7.125000 0.000000 0.000000 -6.556853 15.304891 -4.624417 0.000000 0.000000 0.000000 -1.492931 12.299671 4.862615 -12.357719 -20.338907 -2.225073 18.275681 31.250404 25.442925 0.000000 0.000000 0.000000 7.125000 0.000000 0.000000 46.058982 49.681744 -6.578622
0.209002 17.553083 8.565454 -7.700132 -0.285909 13.107519 0.000000 0.000000 0.000000 -22.527410 -49.655080 26.506159 0.048574 -1.422388 -3.911844 -4.410093 46.596474 -53.790410 0.999534 6.362159 17.838996 0.000000 0.000000 0.000000 24.329067 27.971396 4.237096 -0.000100 -0.059147 0.162537 1.461459 -24.490698 -23.291488 -0.108920 -2.127574 5.858349 2.127725 0.250179 -2.606333 3.299205 0.716611 -12.097299 2.325454 0.352599 -11.515362 -14.722332 -13.426614 -0.292583 12.450805 -20.921290 23.412872 4.426755 -10.170922 10.435311 0.000000 0.000000 0.000000 -4.627212 12.461878 -15.244873 10.697803 -17.823559 1.682240 17.769529 22.825723 14.096308 0.000000 0.000000 0.000000 -7.125000 0.000000 0.000000 -6.603012 15.274280 -4.661746 0.000000 0.000000 0.000000 -1.412021 12.225485 4.708902 -12.357131 -20.338068 -2.224882 18.160230 31.319988 25.284752 0.000000 0.000000 0.000000 7.125000 0.000000 0.000000 45.846045 49.580746 -6.398706
0.207642 17.551271 8.560340 -7.732698 -0.245614 13.126551 0.000000 0.000000 0.000000 -22.240461 -49.516881 26.211819 0.049227 -1.432183 -3.938782 -4.590556 46.613143 -53.355055 0.955661 6.225167 17.439260 0.000000 0.000000 0.000000 24.348270 27.975107 4.171992 -0.000100 -0.069434 0.190701 1.465205 -24.499529 -23.271207 -0.125375 -2.282223 6.286275 2.103722 0.190468 -2.648983 3.338325 0.635809 -12.097856 2.386995 0.317777 -11.488958 -14.570054 -13.494030 -0.627541 12.020683 -20.930696 23.769725 4.226694 -10.173960 10.560497 0.000000 0.000000 0.000000 -4.664608 12.385982 -15.146682 10.651927 -17.752804 1.668210 17.798043 22.897608 14.011837 0.000000 0.000000 0.000000 -7.125000 0.000000 0.000000 -6.581685 15.359201 -4.634477 0.000000 0.000000 0.000000 -1.500546 12.182735 4.889036 -12.342466 -20.316170 -2.219784 18.146721 31.120796 25.393977 0.000000 0.000000 0.000000 7.125000 0.000000 0.000000 45.918801 49.665673 -6.527665
0.207270 17.552218 8.555810 -7.640058 -0.280509 13.160212 0.000000 0.000000 0.000000 -22.271056 -49.517727 26.089701 0.048556 -1.421526 -3.909452 -4.558327 46.579763 -53.375004 0.968325 6.265051 17.555486 0.000000 0.000000 0.000000 24.191636 27.947087 4.061520 -0.000200 -0.079568 0.218635 1.464906 -24.464253 -23.189674 -0.106283 -2.102240 5.788329 1.991079 0.186014 -2.658982 3.290670 0.622315 -12.141795 2.400320 0.319538 -11.533518 -14.634273 -13.474749 -0.478034 12.063392 -20.926724 23.757936 4.262976 -10.182585 10.540715 0.000000 0.000000 0.000000 -4.641105 12.478006 -15.268129 10.666943 -17.776036 1.672862 17.903388 22.766274 13.931990 0.000000 0.000000 0.000000 -7.125000 0.000000 0.000000 -6.507940 15.432271 -4.571526 0.000000 0.000000 0.000000 -1.514975 12.258261 4.869936 -12.318461 -20.280507 -2.211415 17.879773 31.337518 25.344601 0.000000 0.000000 0.000000 7.125000 0.000000 0.000000 45.668566 49.671823 -6.483353
